<svg width="48" height="48" viewBox="0 0 48 48" fill="none" xmlns="http://www.w3.org/2000/svg">
<g clip-path="url(#clip0_512_539)">
<path d="M0 17.3714C0 11.2909 0 8.25057 1.18336 5.9281C2.22427 3.8852 3.8852 2.22427 5.9281 1.18336C8.25057 0 11.2909 0 17.3714 0H30.6286C36.7091 0 39.7494 0 42.0719 1.18336C44.1148 2.22427 45.7757 3.8852 46.8166 5.9281C48 8.25057 48 11.2909 48 17.3714V30.6286C48 36.7091 48 39.7494 46.8166 42.0719C45.7757 44.1148 44.1148 45.7757 42.0719 46.8166C39.7494 48 36.7091 48 30.6286 48H17.3714C11.2909 48 8.25057 48 5.9281 46.8166C3.8852 45.7757 2.22427 44.1148 1.18336 42.0719C0 39.7494 0 36.7091 0 30.6286V17.3714Z" fill="#001E36"/>
<path d="M10.2857 35.1707V14.063C10.2857 13.9194 10.3457 13.8373 10.4857 13.8373C12.5525 13.8373 14.6183 13.7142 16.6857 13.7142C20.0403 13.7142 23.6725 14.8613 24.9457 18.3706C25.2457 19.2322 25.4057 20.1142 25.4057 21.0373C25.4057 22.8014 25.0057 24.2578 24.2057 25.4065C21.971 28.6154 18.0977 28.5655 14.6257 28.5655V35.1501C14.6529 35.3451 14.4867 35.4373 14.3257 35.4373H10.5257C10.3657 35.4373 10.2857 35.3553 10.2857 35.1707ZM14.6457 17.7963V24.6886C16.0224 24.7895 17.463 24.8004 18.7857 24.3604C20.246 23.9392 21.0457 22.6751 21.0457 21.1604C21.0863 19.8697 20.383 18.6313 19.1857 18.1655C17.8789 17.6221 16.0563 17.5896 14.6457 17.7963Z" fill="#31A8FF"/>
<path d="M37.88 23.3269C37.2748 23.008 36.6303 22.7747 35.9641 22.6333C35.1079 22.4318 31.731 21.7263 31.7298 23.492C31.7597 24.4778 33.3245 24.9607 34.0159 25.2423C36.4431 26.0756 39.1897 27.5652 39.1358 30.5595C39.21 34.2871 35.5984 35.7772 32.5025 35.7775C30.8909 35.7942 29.2119 35.5446 27.7369 34.8528C27.5961 34.7782 27.5055 34.6189 27.5115 34.4565V30.8897C27.4957 30.7467 27.6491 30.6217 27.7691 30.7246C29.2143 31.5986 30.9273 32.0229 32.5991 32.0456C33.3371 32.0456 34.7999 31.9741 34.7888 30.8897C34.7888 29.8491 33.039 29.3707 32.3415 29.1063C31.3305 28.7454 30.3718 28.2455 29.4918 27.6202C28.262 26.743 27.4905 25.3365 27.5115 23.7892C27.5043 20.2794 30.8288 18.704 33.8228 18.7033C35.2224 18.6917 36.7254 18.7954 38.0283 19.3638C38.2157 19.4189 38.2545 19.6163 38.2537 19.7931V23.1287C38.2656 23.3358 38.0356 23.4063 37.88 23.3269Z" fill="#31A8FF"/>
</g>
<defs>
<clipPath id="clip0_512_539">
<rect width="48" height="48" fill="white"/>
</clipPath>
</defs>
</svg>
