<svg width="36" height="40" viewBox="0 0 36 40" fill="none" xmlns="http://www.w3.org/2000/svg">
<path fill-rule="evenodd" clip-rule="evenodd" d="M3.20988 36.0013L0 0H35.2714L32.0581 35.9954L17.6144 40L3.20988 36.0013Z" fill="#0071BC"/>
<path fill-rule="evenodd" clip-rule="evenodd" d="M17.6653 36.9371L29.322 33.7303L32.0532 2.99817H17.6653V36.9371Z" fill="#29ABE2"/>
<path fill-rule="evenodd" clip-rule="evenodd" d="M7.34741 16.2248L7.73408 20.6337L17.6654 16.2248V11.8087L7.34741 16.2248Z" fill="#B3B3B3"/>
<path fill-rule="evenodd" clip-rule="evenodd" d="M28.6645 7.09485L17.6653 11.8088V16.2249L28.2852 11.5038L28.6645 7.09485Z" fill="#E6E6E6"/>
<path fill-rule="evenodd" clip-rule="evenodd" d="M17.6653 27.7607L17.6312 27.7658L12.706 26.4431L12.3842 22.9264H7.9516L8.57017 29.8546L17.6303 32.3632L17.6653 32.3549V27.7607Z" fill="#E6E6E6"/>
<path fill-rule="evenodd" clip-rule="evenodd" d="M17.6653 16.2249V20.6338H23.0576L22.5675 26.3981L17.6653 27.7645V32.3584L26.6953 29.8498L27.8844 16.2249H17.6653Z" fill="white"/>
<path fill-rule="evenodd" clip-rule="evenodd" d="M17.6654 16.2249H7.34741L7.73408 20.6338H17.6654V16.2249Z" fill="#E6E6E6"/>
<path fill-rule="evenodd" clip-rule="evenodd" d="M17.6653 11.5038V7.09485H17.6205H6.56348L6.95472 11.5038H17.6653Z" fill="#E6E6E6"/>
<path fill-rule="evenodd" clip-rule="evenodd" d="M17.6653 7.09485V11.4485V11.5038H28.2852L28.6645 7.09485H17.6653Z" fill="white"/>
</svg>
